# Blender v2.77 (sub 0) OBJ File: 'DeadTree1.blend'
# www.blender.org
# mtllib DeadTree2.mtl
o DeadTree2_Cylinder.001
v -0.000000 0.031119 4.370415
v 0.280204 0.031119 4.486480
v 0.396269 0.031119 4.766684
v 0.280204 0.031119 5.046888
v -0.000000 0.031119 5.162953
v -0.280205 0.031119 5.046888
v -0.396269 0.031119 4.766684
v -0.280205 0.031119 4.486480
v -0.021124 0.115601 4.379165
v 0.287378 0.137583 4.503798
v 0.389096 0.169193 4.749366
v 0.264730 0.117844 5.053298
v 0.015475 0.117844 5.156543
v -0.280205 0.113360 5.046888
v -0.396269 0.113360 4.766684
v -0.259080 0.115601 4.477730
v 0.004467 1.090637 4.369830
v 0.237223 1.053550 4.481694
v 0.328237 1.063847 4.725977
v 0.224195 1.115497 4.959584
v -0.013958 1.178243 5.045668
v -0.246714 1.215331 4.933805
v -0.337728 1.205034 4.689520
v -0.233685 1.153384 4.455914
v 0.370441 0.268881 4.688060
v 0.365160 0.031119 4.691581
v 0.319527 0.031119 4.581412
v 0.313751 0.268881 4.551199
v 0.601893 0.147957 4.363895
v 0.616242 0.071501 4.348370
v 0.663499 0.040317 4.484580
v 0.680716 0.075783 4.533962
v 0.658409 0.146013 4.526607
v 0.641930 0.193048 4.480435
v 0.614942 0.191256 4.402750
v 0.638149 0.038634 4.411610
v 0.883306 0.121331 4.182598
v 0.879225 0.062914 4.178154
v 0.929429 0.034133 4.247792
v 0.947703 0.065314 4.272308
v 0.943319 0.123434 4.265114
v 0.927632 0.140383 4.239129
v 0.900534 0.139433 4.201871
v 0.902505 0.033190 4.210773
v 1.096422 0.035608 3.820546
v -0.324300 0.161908 4.116128
v -0.336237 0.097679 4.112333
v -0.118422 0.101423 4.110878
v -0.138384 0.159432 4.115518
v -0.190599 0.206458 4.449364
v -0.281763 0.214272 4.120124
v -0.089630 0.206458 4.407541
v -0.199735 0.213180 4.119855
v -0.174315 0.052425 4.107206
v -0.079004 0.031119 4.403140
v -0.198315 0.031119 4.452225
v -0.268190 0.053675 4.107515
v -0.289455 0.193118 3.805901
v -0.294642 0.149629 3.804307
v -0.158998 0.122434 3.803619
v -0.123014 0.145716 3.804065
v -0.133750 0.191247 3.805681
v -0.187236 0.237729 3.806633
v -0.255934 0.234683 3.806730
v -0.237619 0.118948 3.803731
v -0.309872 0.004340 3.397919
v 0.212563 0.197638 5.074907
v 0.212334 0.031119 5.075001
v 0.074547 0.197638 5.132074
v 0.078484 0.031119 5.130444
v 0.449907 0.152205 5.474874
v 0.460094 0.091630 5.480452
v 0.316569 0.053480 5.520790
v 0.262796 0.097599 5.531668
v 0.271315 0.157608 5.521235
v 0.319969 0.199085 5.504157
v 0.407085 0.196449 5.481543
v 0.410817 0.050629 5.496325
v 0.432369 0.196658 5.857352
v 0.449575 0.154307 5.851606
v 0.335824 0.094512 5.860840
v 0.288451 0.129913 5.871679
v 0.289872 0.175084 5.875104
v 0.326861 0.218372 5.874309
v 0.391554 0.228166 5.866249
v 0.412792 0.106164 5.851252
v 0.404602 -0.045851 6.340377
v -0.598412 0.105901 4.999345
v -0.597699 0.050504 5.011823
v -0.600676 0.049851 4.807392
v -0.601031 0.105327 4.819531
v -0.599701 0.152751 4.941868
v -0.313750 0.183133 4.965902
v -0.600836 0.152503 4.863939
v -0.358947 0.183133 4.856787
v -0.315551 0.031119 4.961555
v -0.598352 0.024786 4.950191
v -0.366986 0.031119 4.837379
v -0.599522 0.024529 4.869851
v -1.003556 0.119366 5.210042
v -1.002868 0.085335 5.214827
v -1.017087 0.074256 5.128856
v -1.023081 0.091715 5.092221
v -1.021635 0.125072 5.100389
v -1.016759 0.152221 5.129448
v -1.009053 0.149789 5.176185
v -1.009144 0.071749 5.177038
v -1.532744 0.028670 5.060244
v 0.302401 1.977050 4.344324
v 0.038227 1.972812 4.837190
v 0.288226 1.963623 4.943682
v 0.503114 1.963621 4.853492
v 0.591290 1.964494 4.637772
v 0.501102 1.965729 4.422887
v -0.034719 3.036481 4.613386
v 0.132958 2.967443 4.556345
v -0.155840 2.890997 4.785913
v -0.095471 2.844552 4.960967
v 0.074355 2.838243 5.047945
v 0.273665 2.916262 4.998993
v 0.363154 2.914689 4.818378
v 0.302785 2.961134 4.643323
v 1.448977 3.708224 4.124376
v 1.449091 3.760916 4.296754
v 1.481372 3.714095 4.217942
v 1.370881 3.746745 4.070867
v 1.292832 3.807091 4.088759
v -0.186724 3.559548 5.362055
v -0.271051 3.411943 5.410390
v -0.370289 3.343159 5.325053
v -0.391150 3.547361 5.088646
v -0.444457 3.400979 5.209106
v 1.292475 3.831444 4.167486
v 1.325805 3.830394 4.240596
v 1.378517 3.806018 4.282016
v 0.034543 3.193389 4.717968
v 0.115929 3.244072 4.810610
v 0.197316 3.156086 4.903252
v -0.270047 3.517513 5.059437
v -0.136771 3.514325 5.091577
v -0.125314 3.526665 5.227437
v 0.592391 3.334203 4.240250
v 0.478557 3.416788 4.156782
v 0.669329 3.342295 4.381669
v 0.424908 3.498603 4.163321
v 0.691529 3.421009 4.483482
v 0.447011 3.583552 4.258819
v 0.526182 3.592396 4.368336
v 0.597762 3.556525 4.442181
v -0.219309 4.116767 4.986462
v -0.263580 4.134540 5.049990
v -0.398845 4.030177 4.911335
v -0.325558 4.038570 4.885475
v -0.245660 4.073956 4.912304
v -0.309709 3.952573 5.765182
v -0.384529 3.915031 5.793049
v -0.472958 3.910386 5.762993
v -0.523195 3.941359 5.692621
v -0.505812 3.989806 5.623155
v -0.380959 3.669364 5.202519
v -0.336959 3.714221 5.304426
v -0.258645 3.637209 5.340948
v -0.424122 4.041278 4.949607
v -0.404170 4.079168 5.017240
v -0.331024 4.120560 5.060669
v -0.440960 4.000466 5.633695
v -0.379562 3.998967 5.662055
v -0.332937 3.979957 5.711930
v -0.618508 4.396860 5.901647
v -0.660619 4.366271 5.913460
v -0.708112 4.350296 5.887206
v -0.733166 4.358292 5.838265
v -0.721105 4.385576 5.795306
v -0.685859 4.400976 5.807217
v -0.653155 4.409668 5.830228
v -0.629344 4.407192 5.865794
v -1.088410 4.901886 6.032332
v -0.491077 4.512436 4.633780
v -0.512607 4.539187 4.665937
v -0.603815 4.457045 4.622224
v -0.562114 4.451817 4.602824
v -0.512447 4.473215 4.605149
v -0.615955 4.473304 4.641438
v -0.598897 4.508656 4.668015
v -0.551985 4.537538 4.678193
v -0.905040 4.751136 4.214095
v 1.610260 4.308434 4.073718
v 1.581038 4.296709 4.030176
v 1.572793 4.265793 3.985311
v 1.620869 4.219425 3.979465
v 1.707483 4.221093 4.069481
v 1.695285 4.268151 4.112614
v 1.676659 4.200910 4.014329
v 1.648487 4.298008 4.100274
v 1.979434 4.525083 3.793582
v 0.128808 2.121349 4.410592
v 0.085453 1.820368 4.400609
v -0.030579 2.132243 4.685905
v -0.067340 1.843313 4.676858
v -0.788906 2.185578 4.364246
v -0.271532 2.072913 4.249352
v -0.777980 2.242897 4.330830
v -0.347605 2.063540 4.558726
v -0.305669 1.976368 4.289762
v -0.266913 2.166379 4.307180
v -0.323964 2.156222 4.506942
v -0.351754 1.976690 4.494051
v 0.034952 2.177020 4.544803
v -0.284735 2.197733 4.397174
v -0.021596 1.779354 4.520043
v -0.326895 1.946144 4.368762
v -0.797377 2.172381 4.415153
v -0.812718 2.199185 4.489189
v -0.816927 2.257050 4.521051
v -0.808639 2.325263 4.465323
v -0.794513 2.329063 4.410406
v -0.782649 2.304176 4.357997
v -1.415799 2.307149 4.166619
v 0.150356 1.980079 4.370917
v -0.027365 1.996984 4.712252
vn -0.0000 -1.0000 -0.0000
vn 0.2797 -0.9242 -0.2600
vn -0.9097 0.0940 -0.4044
vn -0.2200 0.0851 -0.9718
vn -0.3645 0.0686 0.9287
vn 0.3132 -0.9484 -0.0499
vn 0.9155 0.1110 0.3866
vn 0.5733 0.5691 0.5895
vn 0.3692 0.1521 -0.9168
vn -0.3608 -0.0056 -0.9326
vn -0.9072 0.0162 -0.4203
vn -0.9284 0.0741 0.3642
vn -0.3798 0.0960 0.9201
vn 0.3709 0.1112 0.9220
vn 0.9179 0.0733 0.3900
vn 0.9280 0.0589 -0.3680
vn 0.4001 -0.0100 -0.9164
vn 0.0264 -0.9997 -0.0011
vn -0.0204 -0.9804 -0.1958
vn 0.6779 0.2205 0.7013
vn 0.1193 0.9897 -0.0797
vn -0.3098 0.7298 -0.6095
vn -0.3984 0.1469 -0.9054
vn -0.3295 0.4770 -0.8148
vn 0.2061 0.9745 -0.0885
vn 0.6209 0.1783 0.7633
vn 0.2273 -0.9562 0.1842
vn 0.7172 -0.6390 0.2781
vn 0.6652 0.7421 0.0825
vn 0.0259 -0.9996 0.0067
vn -0.5367 0.0835 -0.8396
vn -0.3125 -0.8561 -0.4117
vn -0.0016 -0.9997 0.0246
vn 0.4910 0.7488 0.4451
vn 0.4281 -0.7637 0.4832
vn -0.3881 0.8191 -0.4224
vn 0.1924 0.9674 -0.1646
vn 0.9463 0.1091 0.3043
vn -0.8471 0.0989 -0.5221
vn -0.5731 -0.7666 -0.2895
vn 0.0121 -0.9762 -0.2165
vn -0.9568 0.2191 0.1913
vn -0.7528 0.6208 0.2190
vn 0.8947 0.2899 -0.3398
vn 0.0106 0.9997 0.0201
vn 0.6988 0.6787 -0.2260
vn -0.0205 -0.9978 -0.0630
vn -0.2968 -0.9526 -0.0661
vn -0.4471 -0.8369 0.3159
vn 0.6574 0.7487 0.0858
vn -0.0128 0.9974 0.0708
vn 0.6164 -0.7759 -0.1345
vn 0.9587 0.2821 0.0349
vn -0.9819 0.1611 -0.0997
vn -0.7764 0.6299 -0.0234
vn -0.5071 -0.8334 -0.2195
vn -0.0394 0.8728 -0.4866
vn 0.5498 0.6436 -0.5325
vn 0.5424 -0.8391 0.0425
vn 0.0431 -0.9634 0.2644
vn -0.7522 0.6115 -0.2453
vn 0.8554 0.2184 -0.4696
vn -0.9929 0.1186 -0.0052
vn -0.9936 0.0977 0.0563
vn 0.9014 0.1593 -0.4025
vn 0.0097 0.9999 -0.0058
vn 0.6660 0.7446 -0.0452
vn 0.0776 -0.9878 0.1349
vn -0.6209 0.6832 0.3842
vn -0.8138 0.1959 0.5471
vn 0.0047 -0.9988 0.0490
vn -0.2277 -0.9384 0.2601
vn 0.7044 0.6187 -0.3477
vn -0.6130 -0.7776 -0.1397
vn -0.6767 0.5864 0.4453
vn 0.7833 -0.5972 -0.1725
vn 0.9664 0.2572 -0.0006
vn -0.0607 0.9958 -0.0680
vn 0.7246 -0.6788 0.1190
vn -0.7046 0.7095 -0.0113
vn -0.5965 -0.7928 0.1249
vn 0.1073 -0.9499 -0.2934
vn 0.6155 0.6896 0.3816
vn -0.9695 0.0120 0.2447
vn 0.9132 0.3407 0.2235
vn -0.0683 0.8630 0.5006
vn -0.4012 0.6576 -0.6376
vn -0.0565 -0.9831 -0.1741
vn -0.1244 0.7433 0.6573
vn -0.1267 0.0889 0.9879
vn -0.1156 0.9929 0.0273
vn -0.1502 0.7665 -0.6245
vn -0.0353 -0.9829 0.1807
vn 0.0249 -0.9997 -0.0051
vn 0.0968 -0.9930 -0.0676
vn -0.3254 -0.8765 -0.3549
vn 0.3341 0.7317 0.5942
vn 0.0967 -0.9279 0.3601
vn -0.5368 0.1943 -0.8211
vn 0.0064 0.9998 0.0171
vn 0.4559 0.1756 0.8725
vn -0.1210 -0.9926 -0.0088
vn -0.2434 0.9657 0.0904
vn -0.0858 0.7352 -0.6724
vn 0.1374 -0.8853 -0.4444
vn 0.0020 -0.9411 0.3380
vn -0.3049 0.6833 0.6635
vn 0.0317 0.2364 -0.9711
vn -0.2903 0.1275 0.9484
vn 0.8928 -0.2876 -0.3467
vn 0.4056 0.2656 -0.8746
vn 0.3614 -0.0098 0.9324
vn 0.3831 -0.1623 -0.9093
vn 0.8852 -0.2294 0.4046
vn -0.3775 0.2581 0.8893
vn -0.8216 0.3331 -0.4627
vn -0.2986 -0.6476 0.7010
vn 0.9026 0.1478 0.4043
vn -0.4162 -0.1987 0.8873
vn -0.2273 -0.8605 -0.4559
vn 0.9099 0.2652 -0.3189
vn 0.3265 -0.0498 0.9439
vn -0.0860 0.9526 0.2918
vn -0.5314 -0.2405 0.8123
vn 0.9746 0.0984 -0.2013
vn 0.0737 0.3560 0.9316
vn 0.3872 -0.9134 -0.1259
vn -0.8011 -0.5756 0.1641
vn 0.8451 -0.4559 -0.2794
vn -0.1139 0.0649 -0.9914
vn 0.4616 -0.2084 0.8623
vn -0.8365 -0.0481 -0.5459
vn 0.4457 -0.7232 0.5275
vn -0.1273 0.6402 -0.7576
vn 0.1598 -0.6177 -0.7700
vn 0.8421 0.4272 0.3292
vn 0.7143 0.6973 -0.0594
vn 0.1723 0.7849 -0.5952
vn -0.3129 0.8216 -0.4764
vn -0.2660 0.9561 0.1231
vn -0.1435 0.8051 0.5755
vn -0.0367 0.7853 0.6180
vn -0.5371 0.8232 0.1842
vn -0.8029 0.5296 -0.2736
vn 0.1533 -0.7483 -0.6454
vn 0.8780 -0.3628 0.3123
vn -0.4685 -0.3445 -0.8135
vn 0.5549 -0.7623 -0.3331
vn 0.4106 0.4711 0.7807
vn 0.7292 0.6554 0.1965
vn -0.8323 -0.4287 0.3514
vn -0.2908 -0.3323 -0.8972
vn 0.1645 0.4993 0.8507
vn 0.2935 -0.2564 -0.9209
vn 0.8695 0.3100 0.3845
vn -0.2962 -0.4071 0.8640
vn 0.7052 -0.3531 0.6149
vn -0.2482 0.7336 -0.6326
vn -0.9597 0.0878 -0.2671
vn -0.2196 -0.6211 0.7523
vn 0.8025 0.5211 -0.2907
vn 0.7150 0.5823 -0.3868
vn 0.3611 0.7572 -0.5442
vn -0.9966 -0.0757 -0.0326
vn -0.9455 0.0882 0.3136
vn -0.3131 0.4919 0.8124
vn 0.6179 0.6963 -0.3652
vn 0.3672 0.5505 -0.7497
vn 0.8099 0.5833 -0.0627
vn -0.7908 -0.5150 0.3308
vn 0.3441 -0.0443 0.9379
vn 0.6770 0.6156 -0.4034
vn 0.0865 0.4384 -0.8946
vn -0.8615 -0.2870 -0.4189
vn 0.0921 0.4688 -0.8785
vn -0.8097 -0.3652 -0.4593
vn -0.3168 -0.4395 0.8405
vn 0.3464 0.6018 -0.7196
vn 0.7289 0.6842 -0.0231
vn -0.7514 -0.5938 0.2877
vn 0.2692 0.0013 0.9631
vn -0.4972 0.5801 0.6452
vn -0.5517 0.3737 0.7457
vn 0.8463 0.1487 -0.5116
vn -0.7963 -0.5472 -0.2579
vn -0.2680 -0.6343 -0.7251
vn 0.0516 0.6969 0.7153
vn -0.9033 -0.0844 0.4205
vn 0.3616 -0.3905 -0.8466
vn -0.8587 0.4860 -0.1625
vn -0.7504 -0.6560 0.0811
vn 0.7344 0.0909 -0.6727
vn -0.2966 -0.8651 -0.4045
vn -0.8326 -0.0146 0.5537
vn 0.0759 0.9265 0.3686
vn 0.2977 -0.6113 -0.7333
vn 0.6329 0.7483 -0.1987
vn 0.0022 0.3428 0.9394
vn -0.3876 0.4999 0.7745
vn 0.3961 -0.3713 -0.8398
vn -0.2388 -0.0668 -0.9688
vn 0.2245 0.6515 0.7247
vn 0.8422 -0.2327 0.4863
vn -0.7469 0.5662 0.3487
vn 0.2140 -0.6785 -0.7028
vn 0.6840 -0.7198 -0.1189
vn -0.4631 0.8833 0.0729
vn -0.1180 0.8547 0.5055
vn 0.8157 -0.2615 0.5160
vn -0.3087 -0.2029 -0.9292
vn -0.6169 0.6965 -0.3666
vn -0.8087 0.0292 0.5874
vn -0.2752 -0.5336 0.7997
vn 0.1685 -0.3202 -0.9323
vn -0.4121 0.3283 0.8499
vn -0.8808 0.3572 0.3108
vn -0.8393 -0.0391 -0.5422
vn -0.3028 0.0620 -0.9510
vn 0.3046 0.3840 -0.8716
vn 0.2637 0.9048 0.3344
vn -0.4214 -0.8906 0.1712
vn -0.4241 -0.8253 -0.3728
vn 0.2221 0.9218 -0.3178
vn -0.3065 -0.9136 0.2672
vn 0.0315 0.4812 -0.8761
vn 0.1833 0.9438 -0.2751
vn -0.5158 -0.8429 0.1533
vn 0.1328 0.5323 0.8361
vn -0.2750 -0.3493 -0.8958
vn 0.2660 0.4076 -0.8736
vn -0.4826 -0.4491 0.7519
vn -0.1022 -0.9587 -0.2655
vn 0.1635 -0.5199 -0.8384
vn 0.1258 0.9069 -0.4022
vn -0.3626 0.6157 0.6997
vn -0.0565 0.9969 0.0545
vn -0.2364 0.1713 -0.9564
vn -0.9471 -0.1718 0.2712
usemtl None
s off
f 1//1 2//1 27//1 26//1 3//1 4//1 68//1 70//1 5//1 6//1 96//1 98//1 7//1 8//1 56//1 55//1
f 1//2 55//2 54//2 48//2
f 7//3 15//3 16//3 8//3
f 15//4 7//4 90//4 91//4
f 5//5 13//5 14//5 6//5
f 68//6 4//6 72//6 78//6
f 3//7 11//7 12//7 4//7
f 25//8 11//8 33//8 34//8
f 1//9 9//9 10//9 2//9
f 16//10 24//10 17//10 9//10 52//10 50//10
f 15//11 23//11 24//11 16//11
f 14//12 22//12 23//12 15//12 95//12 93//12
f 13//13 21//13 22//13 14//13
f 12//14 20//14 21//14 13//14 69//14 67//14
f 11//15 19//15 20//15 12//15
f 10//16 18//16 19//16 11//16 25//16 28//16
f 9//17 17//17 18//17 10//17
f 26//18 27//18 36//18 31//18
f 27//19 2//19 30//19 36//19
f 33//20 32//20 40//20 41//20
f 35//21 34//21 42//21 43//21
f 29//22 35//22 43//22 37//22
f 2//23 10//23 29//23 30//23
f 10//24 28//24 35//24 29//24
f 28//25 25//25 34//25 35//25
f 11//26 3//26 32//26 33//26
f 3//27 26//27 31//27 32//27
f 40//28 39//28 45//28
f 42//29 41//29 45//29
f 39//30 44//30 45//30
f 30//31 29//31 37//31 38//31
f 36//32 30//32 38//32 44//32
f 31//33 36//33 44//33 39//33
f 34//34 33//34 41//34 42//34
f 32//35 31//35 39//35 40//35
f 37//36 43//36 45//36
f 43//37 42//37 45//37
f 41//38 40//38 45//38
f 38//39 37//39 45//39
f 44//40 38//40 45//40
f 54//41 57//41 65//41 60//41
f 8//42 16//42 46//42 47//42
f 16//43 50//43 51//43 46//43
f 9//44 1//44 48//44 49//44
f 51//45 50//45 52//45 53//45
f 53//46 52//46 9//46 49//46
f 54//47 55//47 56//47 57//47
f 57//48 56//48 8//48 47//48
f 65//49 59//49 66//49
f 53//50 49//50 62//50 63//50
f 51//51 53//51 63//51 64//51
f 48//52 54//52 60//52 61//52
f 49//53 48//53 61//53 62//53
f 47//54 46//54 58//54 59//54
f 46//55 51//55 64//55 58//55
f 57//56 47//56 59//56 65//56
f 64//57 63//57 66//57
f 63//58 62//58 66//58
f 61//59 60//59 66//59
f 60//60 65//60 66//60
f 58//61 64//61 66//61
f 62//62 61//62 66//62
f 59//63 58//63 66//63
f 75//64 74//64 82//64 83//64
f 4//65 12//65 71//65 72//65
f 67//66 69//66 76//66 77//66
f 71//67 77//67 85//67 79//67
f 73//68 78//68 86//68 81//68
f 69//69 13//69 75//69 76//69
f 13//70 5//70 74//70 75//70
f 70//71 68//71 78//71 73//71
f 5//72 70//72 73//72 74//72
f 12//73 67//73 77//73 71//73
f 82//74 81//74 87//74
f 84//75 83//75 87//75
f 86//76 80//76 87//76
f 72//77 71//77 79//77 80//77
f 77//78 76//78 84//78 85//78
f 78//79 72//79 80//79 86//79
f 76//80 75//80 83//80 84//80
f 74//81 73//81 81//81 82//81
f 81//82 86//82 87//82
f 79//83 85//83 87//83
f 83//84 82//84 87//84
f 80//85 79//85 87//85
f 85//86 84//86 87//86
f 94//87 91//87 104//87 105//87
f 7//88 98//88 99//88 90//88
f 14//89 93//89 92//89 88//89
f 6//90 14//90 88//90 89//90
f 92//91 93//91 95//91 94//91
f 94//92 95//92 15//92 91//92
f 97//93 96//93 6//93 89//93
f 99//94 98//94 96//94 97//94
f 102//95 107//95 108//95
f 90//96 99//96 102//96 103//96
f 88//97 92//97 106//97 100//97
f 97//98 89//98 101//98 107//98
f 91//99 90//99 103//99 104//99
f 92//100 94//100 105//100 106//100
f 89//101 88//101 100//101 101//101
f 99//102 97//102 107//102 102//102
f 106//103 105//103 108//103
f 105//104 104//104 108//104
f 103//105 102//105 108//105
f 107//106 101//106 108//106
f 100//107 106//107 108//107
f 104//108 103//108 108//108
f 101//109 100//109 108//109
f 19//110 18//110 114//110 113//110
f 114//111 109//111 116//111 122//111
f 21//112 20//112 112//112 111//112
f 18//113 17//113 109//113 114//113
f 20//114 19//114 113//114 112//114
f 22//115 21//115 111//115 110//115
f 24//116 23//116 199//116 210//116 197//116
f 118//117 119//117 129//117 130//117
f 112//118 113//118 121//118 120//118
f 110//119 111//119 119//119 118//119
f 197//120 210//120 211//120 204//120
f 113//121 114//121 122//121 121//121
f 111//122 112//122 120//122 119//122
f 198//123 208//123 209//123 206//123
f 199//124 220//124 203//124 207//124
f 141//125 140//125 154//125 150//125
f 149//126 146//126 124//126 135//126
f 144//127 142//127 123//127 125//127
f 117//128 118//128 130//128 132//128
f 125//129 123//129 193//129 191//129
f 143//130 145//130 127//130 126//130
f 119//131 120//131 128//131 129//131
f 115//132 117//132 132//132 131//132
f 146//133 144//133 125//133 124//133
f 136//134 115//134 131//134 139//134
f 142//135 143//135 126//135 123//135
f 120//136 138//136 141//136 128//136
f 138//137 137//137 140//137 141//137
f 137//138 136//138 139//138 140//138
f 145//139 147//139 133//139 127//139
f 147//140 148//140 134//140 133//140
f 148//141 149//141 135//141 134//141
f 137//142 138//142 149//142 148//142
f 136//143 137//143 148//143 147//143
f 115//144 136//144 147//144 145//144
f 122//145 116//145 143//145 142//145
f 120//146 121//146 144//146 146//146
f 116//147 115//147 145//147 143//147
f 121//148 122//148 142//148 144//148
f 138//149 120//149 146//149 149//149
f 151//150 150//150 178//150 179//150
f 132//151 130//151 157//151 158//151
f 139//152 131//152 152//152 153//152
f 162//153 128//153 151//153 165//153
f 140//154 139//154 153//154 154//154
f 128//155 141//155 150//155 151//155
f 157//156 156//156 170//156 171//156
f 129//157 128//157 155//157 156//157
f 160//158 131//158 159//158 166//158
f 131//159 132//159 158//159 159//159
f 130//160 129//160 156//160 157//160
f 128//161 162//161 168//161 155//161
f 162//162 161//162 167//162 168//162
f 161//163 160//163 166//163 167//163
f 131//164 160//164 163//164 152//164
f 160//165 161//165 164//165 163//165
f 161//166 162//166 165//166 164//166
f 176//167 175//167 177//167
f 167//168 166//168 174//168 175//168
f 155//169 168//169 176//169 169//169
f 158//170 157//170 171//170 172//170
f 156//171 155//171 169//171 170//171
f 168//172 167//172 175//172 176//172
f 166//173 159//173 173//173 174//173
f 159//174 158//174 172//174 173//174
f 174//175 173//175 177//175
f 173//176 172//176 177//176
f 171//177 170//177 177//177
f 175//178 174//178 177//178
f 169//179 176//179 177//179
f 172//180 171//180 177//180
f 170//181 169//181 177//181
f 184//182 185//182 186//182
f 164//183 165//183 185//183 184//183
f 150//184 154//184 182//184 178//184
f 152//185 163//185 183//185 180//185
f 153//186 152//186 180//186 181//186
f 165//187 151//187 179//187 185//187
f 163//188 164//188 184//188 183//188
f 154//189 153//189 181//189 182//189
f 127//190 133//190 188//190 189//190
f 180//191 183//191 186//191
f 178//192 182//192 186//192
f 181//193 180//193 186//193
f 183//194 184//194 186//194
f 185//195 179//195 186//195
f 182//196 181//196 186//196
f 179//197 178//197 186//197
f 135//198 124//198 192//198 194//198
f 134//199 135//199 194//199 187//199
f 123//200 126//200 190//200 193//200
f 126//201 127//201 189//201 190//201
f 194//202 192//202 195//202
f 124//203 125//203 191//203 192//203
f 133//204 134//204 187//204 188//204
f 193//205 190//205 195//205
f 191//206 193//206 195//206
f 188//207 187//207 195//207
f 187//208 194//208 195//208
f 192//209 191//209 195//209
f 190//210 189//210 195//210
f 189//211 188//211 195//211
f 43//212 37//212 38//212 44//212 39//212 40//212 41//212 42//212
f 207//213 203//213 214//213 213//213
f 219//214 197//214 204//214 201//214
f 220//215 198//215 206//215 203//215
f 110//216 220//216 199//216 23//216 22//216
f 196//217 208//217 198//217 117//217 115//217
f 197//218 219//218 109//218 17//218 24//218
f 196//219 219//219 201//219 205//219
f 206//220 209//220 216//220 215//220
f 211//221 207//221 213//221 212//221
f 204//222 211//222 212//222 200//222
f 209//223 205//223 217//223 216//223
f 212//224 213//224 218//224
f 205//225 201//225 202//225 217//225
f 209//226 208//226 196//226 205//226
f 211//227 210//227 199//227 207//227
f 203//228 206//228 215//228 214//228
f 201//229 204//229 200//229 202//229
f 217//230 202//230 218//230
f 213//231 214//231 218//231
f 200//232 212//232 218//232
f 202//233 200//233 218//233
f 216//234 217//234 218//234
f 214//235 215//235 218//235
f 215//236 216//236 218//236
f 109//237 219//237 196//237 115//237 116//237
f 198//238 220//238 110//238 118//238 117//238
